<svg width="64" height="64" viewBox="0 0 64 64" fill="none" xmlns="http://www.w3.org/2000/svg">
<path d="M11.1737 55.116C10.7451 55.116 10.3165 54.953 9.99057 54.6248C9.33648 53.9707 9.33648 52.9104 9.99057 52.2585L52.7968 9.44997C53.4509 8.79365 54.5113 8.79365 55.1632 9.44997C55.815 10.1063 55.8195 11.1622 55.1632 11.8163L12.3569 54.6271C12.031 54.953 11.6024 55.1182 11.1737 55.1182V55.116ZM15.0045 42.6659C14.7054 42.6659 14.4018 42.5855 14.1294 42.4203C12.6337 41.4983 11.7408 39.8977 11.7408 38.1408V25.8626C11.7408 23.0944 13.9955 20.8397 16.7637 20.8397H22.3134L38.0451 8.36503C38.5474 7.96319 39.235 7.88506 39.8132 8.17081C40.3892 8.44986 40.7575 9.03475 40.7575 9.67768V17C40.7575 17.9264 40.0074 18.6743 39.0832 18.6743C38.159 18.6743 37.4089 17.9264 37.4089 17V13.1446L23.9431 23.8266C23.6439 24.0588 23.2778 24.1883 22.9005 24.1883H16.7614C15.8395 24.1883 15.0871 24.9406 15.0871 25.8626V38.1408C15.0871 38.7279 15.3863 39.257 15.8819 39.5695C16.6699 40.0517 16.9132 41.0831 16.4288 41.8689C16.1163 42.3824 15.5649 42.6659 15.0001 42.6659H15.0045ZM39.0854 56C38.7149 56 38.3487 55.8772 38.0451 55.6383L27.3408 47.1485C26.6153 46.5726 26.4925 45.5189 27.0684 44.7956C27.6444 44.0767 28.6981 43.9473 29.4214 44.5277L37.4134 50.8632V35.2074C37.4134 34.2832 38.1612 33.5331 39.0877 33.5331C40.0141 33.5331 40.762 34.2832 40.762 35.2074V54.3257C40.762 54.9686 40.3914 55.5535 39.8132 55.8326C39.581 55.9442 39.331 56 39.0832 56H39.0854Z" fill="#1CA0F2"/>
</svg>
